# xmcd
# Track frame offsets:
# 150
# 49576
# 70629
# 94060
# 109919
# 132581
# 165878
# 192919
# 215538
# 241696
#
# Disc length: 3594 seconds
# Revision: 0
# Processed by: cddbd v1.5.1PL2 Copyright (c) Steve Scherf et al.
# Submitted via: VisiTrax 2.9.10.228 - For more info visit www.synapsa.com
#
DISCID=810e080a
DTITLE=B. B. King - B. B. King Live (The Gold Collection)
DYEAR=1900
DGENRE=Blues
TTITLE0=B. B.'s Intro and Theme
TTITLE1=Why I Sing The Blues
TTITLE2=Darlin' You Know I Love You
TTITLE3=Caledonia
TTITLE4=Every Day (I Have The Blues)
TTITLE5=The Letter
TTITLE6=Sweet Little Angel
TTITLE7=The Thrill Is Gone
TTITLE8=Guess Who
TTITLE9=Payin' The Cost To Be The Boss
EXTD=
EXTT0=
EXTT1=
EXTT2=
EXTT3=
EXTT4=
EXTT5=
EXTT6=
EXTT7=
EXTT8=
EXTT9=
PLAYORDER=
